<svg xmlns="http://www.w3.org/2000/svg" viewBox="0 0 512 512"><path fill="#fff" fill-rule="evenodd" d="M52 124H353L374 140L352 165V310L365 336H302L272 326L231 394H173L185 438Q143 460 102 433L89 347L65 303L32 289L20 164Z M 70 92H202L230 110H62Z M83 149H135V169H83Z M212 166H257V186H212Z M277 166H322V186H277Z M74 250H194V269H74Z M213 250H329V269H213Z M173 322L184 369H216L244 322H218L211 352L198 347L193 322Z M116 390H151L155 407H119Z M399 115L465 133L491 166V301L465 343L392 357L374 328V155Z M430 160C406 160 399 193 399 240C399 288 408 316 429 316C451 316 466 281 466 234C466 190 453 160 430 160Z"/></svg>
